<svg width="1196" height="269" viewBox="0 0 1196 269" fill="none" xmlns="http://www.w3.org/2000/svg">
<path d="M908.974 190C897.814 190 888.214 187.84 880.174 183.52C872.134 179.2 865.954 173.32 861.634 165.88C857.314 158.32 855.154 149.68 855.154 139.96C855.154 132.76 856.354 126.1 858.754 119.98C861.154 113.86 864.514 108.58 868.834 104.14C873.274 99.58 878.434 96.1 884.314 93.7C890.314 91.18 896.854 89.92 903.934 89.92C911.014 89.92 917.434 91.18 923.194 93.7C929.074 96.1 934.114 99.58 938.314 104.14C942.514 108.58 945.694 113.86 947.854 119.98C950.134 126.1 951.154 132.76 950.914 139.96L950.734 147.52H875.314L871.174 130.42H921.754L918.334 134.02V130.78C918.334 128.5 917.734 126.52 916.534 124.84C915.454 123.04 913.894 121.66 911.854 120.7C909.814 119.74 907.414 119.26 904.654 119.26C901.174 119.26 898.234 119.98 895.834 121.42C893.434 122.86 891.574 124.9 890.254 127.54C889.054 130.18 888.454 133.36 888.454 137.08C888.454 141.4 889.354 145.18 891.154 148.42C893.074 151.66 895.834 154.18 899.434 155.98C903.154 157.78 907.714 158.68 913.114 158.68C916.714 158.68 919.774 158.26 922.294 157.42C924.934 156.46 927.694 154.96 930.574 152.92L947.314 176.5C942.874 179.98 938.494 182.68 934.174 184.6C929.974 186.52 925.774 187.9 921.574 188.74C917.494 189.58 913.294 190 908.974 190Z" fill="#001915"/>
<path d="M753.854 190.2V57H789.494V113.34L781.754 115.5C783.074 110.94 785.414 106.92 788.774 103.44C792.254 99.84 796.394 97.02 801.194 94.98C805.994 92.94 811.094 91.92 816.494 91.92C823.694 91.92 829.814 93.42 834.854 96.42C839.894 99.42 843.674 103.86 846.194 109.74C848.834 115.5 850.154 122.52 850.154 130.8V190.2H813.614V133.86C813.614 131.22 813.194 129 812.354 127.2C811.514 125.4 810.254 124.02 808.574 123.06C806.894 122.1 804.914 121.62 802.634 121.62C800.834 121.62 799.154 121.92 797.594 122.52C796.154 123 794.894 123.78 793.814 124.86C792.734 125.94 791.894 127.14 791.294 128.46C790.694 129.78 790.394 131.28 790.394 132.96V190.2H772.214C767.654 190.2 763.814 190.2 760.694 190.2C757.694 190.2 755.414 190.2 753.854 190.2Z" fill="#001915"/>
<path d="M707.094 190C697.374 190 688.674 187.84 680.994 183.52C673.434 179.2 667.434 173.32 662.994 165.88C658.674 158.32 656.514 149.68 656.514 139.96C656.514 130.24 658.674 121.66 662.994 114.22C667.434 106.66 673.434 100.72 680.994 96.4C688.674 92.08 697.374 89.92 707.094 89.92C715.734 89.92 723.714 91.24 731.034 93.88C738.354 96.52 744.294 100.36 748.854 105.4L729.054 128.8C727.734 127.36 726.174 126.04 724.374 124.84C722.574 123.64 720.534 122.74 718.254 122.14C715.974 121.42 713.334 121.06 710.334 121.06C706.734 121.06 703.554 121.84 700.794 123.4C698.154 124.96 696.114 127.18 694.674 130.06C693.234 132.82 692.514 136.06 692.514 139.78C692.514 143.38 693.174 146.62 694.494 149.5C695.934 152.26 697.974 154.48 700.614 156.16C703.374 157.84 706.614 158.68 710.334 158.68C713.334 158.68 715.974 158.38 718.254 157.78C720.534 157.18 722.574 156.34 724.374 155.26C726.174 154.06 727.734 152.68 729.054 151.12L748.674 174.7C744.234 179.62 738.354 183.4 731.034 186.04C723.714 188.68 715.734 190 707.094 190Z" fill="#001915"/>
<path d="M588.874 191.82C580.834 191.82 573.694 189.72 567.454 185.52C561.214 181.2 556.294 175.32 552.694 167.88C549.094 160.32 547.294 151.68 547.294 141.96C547.294 132.12 549.034 123.48 552.514 116.04C556.114 108.48 561.034 102.6 567.274 98.4C573.634 94.08 580.954 91.92 589.234 91.92C593.554 91.92 597.514 92.52 601.114 93.72C604.714 94.92 607.894 96.6 610.654 98.76C613.414 100.92 615.814 103.44 617.854 106.32C619.894 109.08 621.634 112.08 623.074 115.32L615.694 115.14V93.9H651.514V190.2H614.794V166.62L622.894 167.34C621.694 170.82 620.014 174.06 617.854 177.06C615.814 180.06 613.354 182.64 610.474 184.8C607.594 186.96 604.354 188.7 600.754 190.02C597.154 191.22 593.194 191.82 588.874 191.82ZM599.314 162.12C602.794 162.12 605.734 161.34 608.134 159.78C610.654 158.22 612.514 155.94 613.714 152.94C615.034 149.94 615.694 146.28 615.694 141.96C615.694 137.64 615.034 133.98 613.714 130.98C612.514 127.86 610.654 125.52 608.134 123.96C605.734 122.4 602.794 121.62 599.314 121.62C595.834 121.62 592.894 122.4 590.494 123.96C588.094 125.52 586.234 127.86 584.914 130.98C583.714 133.98 583.114 137.64 583.114 141.96C583.114 146.28 583.714 149.94 584.914 152.94C586.234 155.94 588.094 158.22 590.494 159.78C592.894 161.34 595.834 162.12 599.314 162.12Z" fill="#001915"/>
<path d="M438.074 227.8V91.9H471.914L473.894 113.14L466.514 111.52C467.354 107.32 469.394 103.6 472.634 100.36C475.874 97.12 479.954 94.6 484.874 92.8C489.914 90.88 495.374 89.92 501.254 89.92C509.174 89.92 516.194 92.08 522.314 96.4C528.554 100.6 533.414 106.48 536.894 114.04C540.494 121.48 542.294 130.12 542.294 139.96C542.294 149.68 540.494 158.32 536.894 165.88C533.294 173.32 528.314 179.2 521.954 183.52C515.714 187.72 508.514 189.82 500.354 189.82C494.954 189.82 489.854 188.86 485.054 186.94C480.374 185.02 476.414 182.38 473.174 179.02C469.934 175.54 467.774 171.58 466.694 167.14L474.794 164.62V227.8H438.074ZM490.274 160.12C493.754 160.12 496.694 159.34 499.094 157.78C501.494 156.22 503.294 153.94 504.494 150.94C505.814 147.94 506.474 144.28 506.474 139.96C506.474 135.64 505.814 131.98 504.494 128.98C503.294 125.86 501.494 123.52 499.094 121.96C496.694 120.4 493.754 119.62 490.274 119.62C486.794 119.62 483.794 120.4 481.274 121.96C478.874 123.52 477.014 125.86 475.694 128.98C474.494 131.98 473.894 135.64 473.894 139.96C473.894 144.28 474.494 147.94 475.694 150.94C477.014 153.94 478.874 156.22 481.274 157.78C483.794 159.34 486.794 160.12 490.274 160.12Z" fill="#001915"/>
<path d="M389.154 190C378.714 190 369.594 188.44 361.794 185.32C354.114 182.08 348.114 178.06 343.794 173.26L365.034 155.08C368.874 158.44 373.254 160.96 378.174 162.64C383.214 164.2 387.414 164.98 390.774 164.98C391.974 164.98 392.994 164.92 393.834 164.8C394.794 164.56 395.514 164.26 395.994 163.9C396.594 163.42 397.014 162.94 397.254 162.46C397.614 161.98 397.794 161.38 397.794 160.66C397.794 158.86 396.834 157.54 394.914 156.7C393.834 156.22 392.034 155.62 389.514 154.9C387.114 154.18 383.934 153.34 379.974 152.38C375.294 151.18 370.974 149.68 367.014 147.88C363.174 146.08 359.874 143.98 357.114 141.58C354.234 138.94 351.954 135.94 350.274 132.58C348.714 129.22 347.934 125.44 347.934 121.24C347.934 116.32 349.074 111.94 351.354 108.1C353.634 104.26 356.754 101.02 360.714 98.38C364.674 95.62 369.114 93.52 374.034 92.08C378.954 90.64 383.994 89.92 389.154 89.92C395.034 89.92 400.494 90.52 405.534 91.72C410.694 92.8 415.494 94.42 419.934 96.58C424.494 98.62 428.634 101.08 432.354 103.96L413.814 124.66C411.774 122.98 409.374 121.36 406.614 119.8C403.974 118.24 401.154 116.98 398.154 116.02C395.274 114.94 392.574 114.4 390.054 114.4C388.734 114.4 387.594 114.52 386.634 114.76C385.794 114.88 385.074 115.18 384.474 115.66C383.874 116.02 383.394 116.5 383.034 117.1C382.794 117.58 382.674 118.18 382.674 118.9C382.674 119.86 382.974 120.76 383.574 121.6C384.174 122.44 385.134 123.16 386.454 123.76C387.534 124.24 389.334 124.9 391.854 125.74C394.494 126.58 398.334 127.72 403.374 129.16C408.774 130.72 413.514 132.52 417.594 134.56C421.794 136.6 425.154 139 427.674 141.76C429.354 143.68 430.674 145.84 431.634 148.24C432.594 150.64 433.074 153.22 433.074 155.98C433.074 162.58 431.154 168.46 427.314 173.62C423.594 178.66 418.434 182.68 411.834 185.68C405.234 188.56 397.674 190 389.154 190Z" fill="#001915"/>
<path d="M296.82 190C285.66 190 276.06 187.84 268.02 183.52C259.98 179.2 253.8 173.32 249.48 165.88C245.16 158.32 243 149.68 243 139.96C243 132.76 244.2 126.1 246.6 119.98C249 113.86 252.36 108.58 256.68 104.14C261.12 99.58 266.28 96.1 272.16 93.7C278.16 91.18 284.7 89.92 291.78 89.92C298.86 89.92 305.28 91.18 311.04 93.7C316.92 96.1 321.96 99.58 326.16 104.14C330.36 108.58 333.54 113.86 335.7 119.98C337.98 126.1 339 132.76 338.76 139.96L338.58 147.52H263.16L259.02 130.42H309.6L306.18 134.02V130.78C306.18 128.5 305.58 126.52 304.38 124.84C303.3 123.04 301.74 121.66 299.7 120.7C297.66 119.74 295.26 119.26 292.5 119.26C289.02 119.26 286.08 119.98 283.68 121.42C281.28 122.86 279.42 124.9 278.1 127.54C276.9 130.18 276.3 133.36 276.3 137.08C276.3 141.4 277.2 145.18 279 148.42C280.92 151.66 283.68 154.18 287.28 155.98C291 157.78 295.56 158.68 300.96 158.68C304.56 158.68 307.62 158.26 310.14 157.42C312.78 156.46 315.54 154.96 318.42 152.92L335.16 176.5C330.72 179.98 326.34 182.68 322.02 184.6C317.82 186.52 313.62 187.9 309.42 188.74C305.34 189.58 301.14 190 296.82 190Z" fill="#001915"/>
<path d="M43 132C43 128.686 45.6863 126 49 126H74C77.3137 126 80 128.686 80 132C80 135.314 77.3137 138 74 138H49C45.6863 138 43 135.314 43 132Z" fill="#001915"/>
<path fill-rule="evenodd" clip-rule="evenodd" d="M167.48 190H113H70C66.6863 190 64 187.314 64 184C64 180.686 66.6863 178 70 178H102C109.227 177.183 113 173 113 173V168C113 168 107.855 164.654 98 164H51C47.6863 164 45 161.314 45 158C45 154.686 47.6863 152 51 152H99C107.729 149.48 112.185 148.038 113 145C111.188 141.143 109.372 139.666 105 138H90C86.6863 138 84 135.314 84 132C84 128.686 86.6863 126 90 126H106C110.599 125.346 113 122 113 122V115C113 115 111.285 112.49 108 112H67C63.6863 112 61 109.314 61 106C61 102.686 63.6863 100 67 100H108C111.285 99.5098 113 97 113 97V89C113 89 106.14 86.4902 93 86H51C47.6863 86 45 83.3137 45 80C45 76.6863 47.6863 74 51 74H93C106.14 73.5098 113 71 113 71V63C113 63 109.227 60.4902 102 60H80C76.6863 60 74 57.3137 74 54C74 50.6863 76.6863 48 80 48H130H166.927C181.492 48 194.075 50.8428 204.676 56.5283C215.323 62.1676 223.527 70.3031 229.289 80.9346C235.096 91.5199 238 104.208 238 119C238 133.792 235.119 146.503 229.358 157.135C223.596 167.72 215.438 175.855 204.883 181.541C194.328 187.18 181.861 190 167.48 190ZM166.097 157.273H151.5V80.7266H164.991C172.366 80.7266 178.588 81.859 183.658 84.124C188.774 86.389 192.646 90.2949 195.273 95.8418C197.947 101.389 199.283 109.108 199.283 119C199.283 128.892 197.97 136.611 195.342 142.158C192.761 147.705 188.982 151.611 184.004 153.876C179.072 156.141 173.103 157.273 166.097 157.273Z" fill="#001915"/>
<g clip-path="url(#clip0_3_27)">
<path d="M173.104 179.354L257.354 95.1043L231.357 69.1071L169.253 131.211L133.146 95.1043L111 117.25L173.104 179.354Z" fill="#008A7C"/>
</g>
<path d="M1090.58 190.04C1082.54 190.04 1075.4 187.94 1069.16 183.74C1062.92 179.42 1058 173.54 1054.4 166.1C1050.8 158.54 1049 149.9 1049 140.18C1049 130.34 1050.74 121.7 1054.22 114.26C1057.82 106.7 1062.74 100.82 1068.98 96.62C1075.34 92.3 1082.66 90.14 1090.94 90.14C1095.26 90.14 1099.22 90.74 1102.82 91.94C1106.42 93.14 1109.6 94.82 1112.36 96.98C1115.12 99.14 1117.52 101.66 1119.56 104.54C1121.6 107.3 1123.34 110.3 1124.78 113.54L1117.4 113.36V92.12H1153.22V188.42H1116.5V164.84L1124.6 165.56C1123.4 169.04 1121.72 172.28 1119.56 175.28C1117.52 178.28 1115.06 180.86 1112.18 183.02C1109.3 185.18 1106.06 186.92 1102.46 188.24C1098.86 189.44 1094.9 190.04 1090.58 190.04ZM1101.02 160.34C1104.5 160.34 1107.44 159.56 1109.84 158C1112.36 156.44 1114.22 154.16 1115.42 151.16C1116.74 148.16 1117.4 144.5 1117.4 140.18C1117.4 135.86 1116.74 132.2 1115.42 129.2C1114.22 126.08 1112.36 123.74 1109.84 122.18C1107.44 120.62 1104.5 119.84 1101.02 119.84C1097.54 119.84 1094.6 120.62 1092.2 122.18C1089.8 123.74 1087.94 126.08 1086.62 129.2C1085.42 132.2 1084.82 135.86 1084.82 140.18C1084.82 144.5 1085.42 148.16 1086.62 151.16C1087.94 154.16 1089.8 156.44 1092.2 158C1094.6 159.56 1097.54 160.34 1101.02 160.34ZM1089.5 84.74L1079.06 68.72L1116.14 41L1130.54 62.78L1089.5 84.74Z" fill="#008A7C"/>
<path d="M997.718 190C992.128 190 986.937 189.4 982.145 188.2C977.354 187.133 973.028 185.6 969.168 183.6C965.308 181.467 961.848 178.867 958.786 175.8C955.858 172.6 953.263 169 951 165L974.758 140.4C975.956 142.133 977.154 143.733 978.352 145.2C979.683 146.667 981.014 147.933 982.345 149C983.676 149.933 985.074 150.733 986.538 151.4C988.135 151.933 989.732 152.2 991.329 152.2C993.459 152.2 995.322 151.733 996.919 150.8C998.517 149.733 999.715 148.333 1000.51 146.6C1001.44 144.733 1001.91 142.533 1001.91 140V84.8H976.156V48H1065V84.8H1043.44V145.4C1043.44 152.6 1042.24 158.933 1039.84 164.4C1037.45 169.867 1034.19 174.533 1030.06 178.4C1025.94 182.267 1021.08 185.2 1015.49 187.2C1010.03 189.067 1004.11 190 997.718 190Z" fill="#008A7C"/>
<defs>
<clipPath id="clip0_3_27">
<rect width="106" height="131" fill="white" transform="translate(151 48)"/>
</clipPath>
</defs>
</svg>
