<svg width="1000" height="1000" viewBox="0 0 1000 1000" fill="none" xmlns="http://www.w3.org/2000/svg">
<path d="M60 553.282C60 539.7 71.01 528.69 84.5915 528.69H187.056C200.638 528.69 211.648 539.7 211.648 553.282C211.648 566.863 200.638 577.873 187.056 577.873H84.5916C71.01 577.873 60 566.863 60 553.282Z" fill="#DCEAE9"/>
<path fill-rule="evenodd" clip-rule="evenodd" d="M570.193 791H346.901H170.662C157.08 791 146.07 779.99 146.07 766.408C146.07 752.827 157.08 741.817 170.662 741.817H301.817C331.437 738.469 346.901 721.324 346.901 721.324V700.831C346.901 700.831 325.813 687.115 285.423 684.437H92.7887C79.2072 684.437 68.1972 673.427 68.1972 659.845C68.1972 646.264 79.2072 635.254 92.7887 635.254H289.521C325.297 624.925 343.56 619.017 346.901 606.563C339.475 590.756 332.034 584.7 314.113 577.873H252.634C239.052 577.873 228.042 566.863 228.042 553.282C228.042 539.7 239.052 528.69 252.634 528.69H318.211C337.06 526.011 346.901 512.296 346.901 512.296V483.606C346.901 483.606 339.872 473.319 326.408 471.31H158.366C144.785 471.31 133.775 460.3 133.775 446.718C133.775 433.137 144.785 422.127 158.366 422.127H326.408C339.872 420.118 346.901 409.831 346.901 409.831V377.042C346.901 377.042 318.784 366.755 264.93 364.746H92.7887C79.2072 364.746 68.1972 353.736 68.1972 340.155C68.1972 326.573 79.2072 315.563 92.7887 315.563H264.93C318.784 313.554 346.901 303.268 346.901 303.268V270.479C346.901 270.479 331.437 260.192 301.817 258.183H211.648C198.066 258.183 187.056 247.173 187.056 233.592C187.056 220.01 198.066 209 211.648 209H416.577H567.926C627.622 209 679.194 220.651 722.643 243.954C766.282 267.067 799.908 300.411 823.521 343.985C847.324 387.37 859.225 439.375 859.225 500C859.225 560.625 847.418 612.725 823.805 656.299C800.191 699.684 766.754 733.027 723.493 756.33C680.233 779.443 629.133 791 570.193 791ZM564.526 656.867H504.697V343.133H559.992C590.217 343.133 615.72 347.774 636.5 357.058C657.469 366.341 673.338 382.35 684.106 405.084C695.062 427.818 700.541 459.457 700.541 500C700.541 540.543 695.157 572.182 684.389 594.916C673.81 617.65 658.32 633.659 637.917 642.942C617.704 652.226 593.24 656.867 564.526 656.867Z" fill="#DCEAE9"/>
<path d="M504.697 657.796V475.408L576.423 551.232L832.584 295.07L939.148 401.634L592.817 747.965L504.697 657.796Z" fill="#26A699"/>
</svg>
