<svg width="1111" height="185" viewBox="0 0 1111 185" fill="none" xmlns="http://www.w3.org/2000/svg">
<path d="M865.974 147C854.814 147 845.214 144.84 837.174 140.52C829.134 136.2 822.954 130.32 818.634 122.88C814.314 115.32 812.154 106.68 812.154 96.96C812.154 89.76 813.354 83.1 815.754 76.98C818.154 70.86 821.514 65.58 825.834 61.14C830.274 56.58 835.434 53.1 841.314 50.7C847.314 48.18 853.854 46.92 860.934 46.92C868.014 46.92 874.434 48.18 880.194 50.7C886.074 53.1 891.114 56.58 895.314 61.14C899.514 65.58 902.694 70.86 904.854 76.98C907.134 83.1 908.154 89.76 907.914 96.96L907.734 104.52H832.314L828.174 87.42H878.754L875.334 91.02V87.78C875.334 85.5 874.734 83.52 873.534 81.84C872.454 80.04 870.894 78.66 868.854 77.7C866.814 76.74 864.414 76.26 861.654 76.26C858.174 76.26 855.234 76.98 852.834 78.42C850.434 79.86 848.574 81.9 847.254 84.54C846.054 87.18 845.454 90.36 845.454 94.08C845.454 98.4 846.354 102.18 848.154 105.42C850.074 108.66 852.834 111.18 856.434 112.98C860.154 114.78 864.714 115.68 870.114 115.68C873.714 115.68 876.774 115.26 879.294 114.42C881.934 113.46 884.694 111.96 887.574 109.92L904.314 133.5C899.874 136.98 895.494 139.68 891.174 141.6C886.974 143.52 882.774 144.9 878.574 145.74C874.494 146.58 870.294 147 865.974 147Z" fill="#DCEAE9"/>
<path d="M710.854 147.2V14H746.494V70.34L738.754 72.5C740.074 67.94 742.414 63.92 745.774 60.44C749.254 56.84 753.394 54.02 758.194 51.98C762.994 49.94 768.094 48.92 773.494 48.92C780.694 48.92 786.814 50.42 791.854 53.42C796.894 56.42 800.674 60.86 803.194 66.74C805.834 72.5 807.154 79.52 807.154 87.8V147.2H770.614V90.86C770.614 88.22 770.194 86 769.354 84.2C768.514 82.4 767.254 81.02 765.574 80.06C763.894 79.1 761.914 78.62 759.634 78.62C757.834 78.62 756.154 78.92 754.594 79.52C753.154 80 751.894 80.78 750.814 81.86C749.734 82.94 748.894 84.14 748.294 85.46C747.694 86.78 747.394 88.28 747.394 89.96V147.2H729.214C724.654 147.2 720.814 147.2 717.694 147.2C714.694 147.2 712.414 147.2 710.854 147.2Z" fill="#DCEAE9"/>
<path d="M664.094 147C654.374 147 645.674 144.84 637.994 140.52C630.434 136.2 624.434 130.32 619.994 122.88C615.674 115.32 613.514 106.68 613.514 96.96C613.514 87.24 615.674 78.66 619.994 71.22C624.434 63.66 630.434 57.72 637.994 53.4C645.674 49.08 654.374 46.92 664.094 46.92C672.734 46.92 680.714 48.24 688.034 50.88C695.354 53.52 701.294 57.36 705.854 62.4L686.054 85.8C684.734 84.36 683.174 83.04 681.374 81.84C679.574 80.64 677.534 79.74 675.254 79.14C672.974 78.42 670.334 78.06 667.334 78.06C663.734 78.06 660.554 78.84 657.794 80.4C655.154 81.96 653.114 84.18 651.674 87.06C650.234 89.82 649.514 93.06 649.514 96.78C649.514 100.38 650.174 103.62 651.494 106.5C652.934 109.26 654.974 111.48 657.614 113.16C660.374 114.84 663.614 115.68 667.334 115.68C670.334 115.68 672.974 115.38 675.254 114.78C677.534 114.18 679.574 113.34 681.374 112.26C683.174 111.06 684.734 109.68 686.054 108.12L705.674 131.7C701.234 136.62 695.354 140.4 688.034 143.04C680.714 145.68 672.734 147 664.094 147Z" fill="#DCEAE9"/>
<path d="M545.874 148.82C537.834 148.82 530.694 146.72 524.454 142.52C518.214 138.2 513.294 132.32 509.694 124.88C506.094 117.32 504.294 108.68 504.294 98.96C504.294 89.12 506.034 80.48 509.514 73.04C513.114 65.48 518.034 59.6 524.274 55.4C530.634 51.08 537.954 48.92 546.234 48.92C550.554 48.92 554.514 49.52 558.114 50.72C561.714 51.92 564.894 53.6 567.654 55.76C570.414 57.92 572.814 60.44 574.854 63.32C576.894 66.08 578.634 69.08 580.074 72.32L572.694 72.14V50.9H608.514V147.2H571.794V123.62L579.894 124.34C578.694 127.82 577.014 131.06 574.854 134.06C572.814 137.06 570.354 139.64 567.474 141.8C564.594 143.96 561.354 145.7 557.754 147.02C554.154 148.22 550.194 148.82 545.874 148.82ZM556.314 119.12C559.794 119.12 562.734 118.34 565.134 116.78C567.654 115.22 569.514 112.94 570.714 109.94C572.034 106.94 572.694 103.28 572.694 98.96C572.694 94.64 572.034 90.98 570.714 87.98C569.514 84.86 567.654 82.52 565.134 80.96C562.734 79.4 559.794 78.62 556.314 78.62C552.834 78.62 549.894 79.4 547.494 80.96C545.094 82.52 543.234 84.86 541.914 87.98C540.714 90.98 540.114 94.64 540.114 98.96C540.114 103.28 540.714 106.94 541.914 109.94C543.234 112.94 545.094 115.22 547.494 116.78C549.894 118.34 552.834 119.12 556.314 119.12Z" fill="#DCEAE9"/>
<path d="M395.074 184.8V48.9H428.914L430.894 70.14L423.514 68.52C424.354 64.32 426.394 60.6 429.634 57.36C432.874 54.12 436.954 51.6 441.874 49.8C446.914 47.88 452.374 46.92 458.254 46.92C466.174 46.92 473.194 49.08 479.314 53.4C485.554 57.6 490.414 63.48 493.894 71.04C497.494 78.48 499.294 87.12 499.294 96.96C499.294 106.68 497.494 115.32 493.894 122.88C490.294 130.32 485.314 136.2 478.954 140.52C472.714 144.72 465.514 146.82 457.354 146.82C451.954 146.82 446.854 145.86 442.054 143.94C437.374 142.02 433.414 139.38 430.174 136.02C426.934 132.54 424.774 128.58 423.694 124.14L431.794 121.62V184.8H395.074ZM447.274 117.12C450.754 117.12 453.694 116.34 456.094 114.78C458.494 113.22 460.294 110.94 461.494 107.94C462.814 104.94 463.474 101.28 463.474 96.96C463.474 92.64 462.814 88.98 461.494 85.98C460.294 82.86 458.494 80.52 456.094 78.96C453.694 77.4 450.754 76.62 447.274 76.62C443.794 76.62 440.794 77.4 438.274 78.96C435.874 80.52 434.014 82.86 432.694 85.98C431.494 88.98 430.894 92.64 430.894 96.96C430.894 101.28 431.494 104.94 432.694 107.94C434.014 110.94 435.874 113.22 438.274 114.78C440.794 116.34 443.794 117.12 447.274 117.12Z" fill="#DCEAE9"/>
<path d="M346.154 147C335.714 147 326.594 145.44 318.794 142.32C311.114 139.08 305.114 135.06 300.794 130.26L322.034 112.08C325.874 115.44 330.254 117.96 335.174 119.64C340.214 121.2 344.414 121.98 347.774 121.98C348.974 121.98 349.994 121.92 350.834 121.8C351.794 121.56 352.514 121.26 352.994 120.9C353.594 120.42 354.014 119.94 354.254 119.46C354.614 118.98 354.794 118.38 354.794 117.66C354.794 115.86 353.834 114.54 351.914 113.7C350.834 113.22 349.034 112.62 346.514 111.9C344.114 111.18 340.934 110.34 336.974 109.38C332.294 108.18 327.974 106.68 324.014 104.88C320.174 103.08 316.874 100.98 314.114 98.58C311.234 95.94 308.954 92.94 307.274 89.58C305.714 86.22 304.934 82.44 304.934 78.24C304.934 73.32 306.074 68.94 308.354 65.1C310.634 61.26 313.754 58.02 317.714 55.38C321.674 52.62 326.114 50.52 331.034 49.08C335.954 47.64 340.994 46.92 346.154 46.92C352.034 46.92 357.494 47.52 362.534 48.72C367.694 49.8 372.494 51.42 376.934 53.58C381.494 55.62 385.634 58.08 389.354 60.96L370.814 81.66C368.774 79.98 366.374 78.36 363.614 76.8C360.974 75.24 358.154 73.98 355.154 73.02C352.274 71.94 349.574 71.4 347.054 71.4C345.734 71.4 344.594 71.52 343.634 71.76C342.794 71.88 342.074 72.18 341.474 72.66C340.874 73.02 340.394 73.5 340.034 74.1C339.794 74.58 339.674 75.18 339.674 75.9C339.674 76.86 339.974 77.76 340.574 78.6C341.174 79.44 342.134 80.16 343.454 80.76C344.534 81.24 346.334 81.9 348.854 82.74C351.494 83.58 355.334 84.72 360.374 86.16C365.774 87.72 370.514 89.52 374.594 91.56C378.794 93.6 382.154 96 384.674 98.76C386.354 100.68 387.674 102.84 388.634 105.24C389.594 107.64 390.074 110.22 390.074 112.98C390.074 119.58 388.154 125.46 384.314 130.62C380.594 135.66 375.434 139.68 368.834 142.68C362.234 145.56 354.674 147 346.154 147Z" fill="#DCEAE9"/>
<path d="M253.82 147C242.66 147 233.06 144.84 225.02 140.52C216.98 136.2 210.8 130.32 206.48 122.88C202.16 115.32 200 106.68 200 96.96C200 89.76 201.2 83.1 203.6 76.98C206 70.86 209.36 65.58 213.68 61.14C218.12 56.58 223.28 53.1 229.16 50.7C235.16 48.18 241.7 46.92 248.78 46.92C255.86 46.92 262.28 48.18 268.04 50.7C273.92 53.1 278.96 56.58 283.16 61.14C287.36 65.58 290.54 70.86 292.7 76.98C294.98 83.1 296 89.76 295.76 96.96L295.58 104.52H220.16L216.02 87.42H266.6L263.18 91.02V87.78C263.18 85.5 262.58 83.52 261.38 81.84C260.3 80.04 258.74 78.66 256.7 77.7C254.66 76.74 252.26 76.26 249.5 76.26C246.02 76.26 243.08 76.98 240.68 78.42C238.28 79.86 236.42 81.9 235.1 84.54C233.9 87.18 233.3 90.36 233.3 94.08C233.3 98.4 234.2 102.18 236 105.42C237.92 108.66 240.68 111.18 244.28 112.98C248 114.78 252.56 115.68 257.96 115.68C261.56 115.68 264.62 115.26 267.14 114.42C269.78 113.46 272.54 111.96 275.42 109.92L292.16 133.5C287.72 136.98 283.34 139.68 279.02 141.6C274.82 143.52 270.62 144.9 266.42 145.74C262.34 146.58 258.14 147 253.82 147Z" fill="#DCEAE9"/>
<path d="M0 89C0 85.6863 2.68629 83 6 83H31C34.3137 83 37 85.6863 37 89C37 92.3137 34.3137 95 31 95H6C2.68629 95 0 92.3137 0 89Z" fill="#DCEAE9"/>
<path fill-rule="evenodd" clip-rule="evenodd" d="M124.48 147H70H27C23.6863 147 21 144.314 21 141C21 137.686 23.6863 135 27 135H59C66.2268 134.183 70 130 70 130V125C70 125 64.8547 121.654 55 121H8C4.68629 121 2 118.314 2 115C2 111.686 4.68629 109 8 109H56C64.7288 106.48 69.1848 105.038 70 102C68.188 98.1433 66.3724 96.6656 62 95H47C43.6863 95 41 92.3137 41 89C41 85.6863 43.6863 83 47 83H63C67.5989 82.3464 70 79 70 79V72C70 72 68.2849 69.4902 65 69H24C20.6863 69 18 66.3137 18 63C18 59.6863 20.6863 57 24 57H65C68.2849 56.5098 70 54 70 54V46C70 46 63.1396 43.4902 50 43H8C4.68629 43 2 40.3137 2 37C2 33.6863 4.68629 31 8 31H50C63.1396 30.5098 70 28 70 28V20C70 20 66.2268 17.4902 59 17H37C33.6863 17 31 14.3137 31 11C31 7.68629 33.6863 5 37 5H87H123.927C138.492 5 151.075 7.84277 161.676 13.5283C172.323 19.1676 180.527 27.3031 186.289 37.9346C192.096 48.5199 195 61.2083 195 76C195 90.7917 192.119 103.503 186.358 114.135C180.596 124.72 172.438 132.855 161.883 138.541C151.328 144.18 138.861 147 124.48 147ZM123.097 114.273H108.5V37.7266H121.991C129.366 37.7266 135.588 38.859 140.658 41.124C145.774 43.389 149.646 47.2949 152.273 52.8418C154.947 58.3887 156.283 66.1081 156.283 76C156.283 85.8919 154.97 93.6113 152.342 99.1582C149.761 104.705 145.982 108.611 141.004 110.876C136.072 113.141 130.103 114.273 123.097 114.273Z" fill="#DCEAE9"/>
<path d="M108.5 114.5V70L126 88.5L188.5 26L214.5 52L130 136.5L108.5 114.5Z" fill="#26A699"/>
<path d="M1047.58 149.04C1039.54 149.04 1032.4 146.94 1026.16 142.74C1019.92 138.42 1015 132.54 1011.4 125.1C1007.8 117.54 1006 108.9 1006 99.18C1006 89.34 1007.74 80.7 1011.22 73.26C1014.82 65.7 1019.74 59.82 1025.98 55.62C1032.34 51.3 1039.66 49.14 1047.94 49.14C1052.26 49.14 1056.22 49.74 1059.82 50.94C1063.42 52.14 1066.6 53.82 1069.36 55.98C1072.12 58.14 1074.52 60.66 1076.56 63.54C1078.6 66.3 1080.34 69.3 1081.78 72.54L1074.4 72.36V51.12H1110.22V147.42H1073.5V123.84L1081.6 124.56C1080.4 128.04 1078.72 131.28 1076.56 134.28C1074.52 137.28 1072.06 139.86 1069.18 142.02C1066.3 144.18 1063.06 145.92 1059.46 147.24C1055.86 148.44 1051.9 149.04 1047.58 149.04ZM1058.02 119.34C1061.5 119.34 1064.44 118.56 1066.84 117C1069.36 115.44 1071.22 113.16 1072.42 110.16C1073.74 107.16 1074.4 103.5 1074.4 99.18C1074.4 94.86 1073.74 91.2 1072.42 88.2C1071.22 85.08 1069.36 82.74 1066.84 81.18C1064.44 79.62 1061.5 78.84 1058.02 78.84C1054.54 78.84 1051.6 79.62 1049.2 81.18C1046.8 82.74 1044.94 85.08 1043.62 88.2C1042.42 91.2 1041.82 94.86 1041.82 99.18C1041.82 103.5 1042.42 107.16 1043.62 110.16C1044.94 113.16 1046.8 115.44 1049.2 117C1051.6 118.56 1054.54 119.34 1058.02 119.34ZM1046.5 43.74L1036.06 27.72L1073.14 0L1087.54 21.78L1046.5 43.74Z" fill="#26A699"/>
<path d="M954.718 147C949.128 147 943.937 146.4 939.145 145.2C934.354 144.133 930.028 142.6 926.168 140.6C922.308 138.467 918.848 135.867 915.786 132.8C912.858 129.6 910.263 126 908 122L931.758 97.4C932.956 99.1333 934.154 100.733 935.352 102.2C936.683 103.667 938.014 104.933 939.345 106C940.676 106.933 942.074 107.733 943.538 108.4C945.135 108.933 946.732 109.2 948.329 109.2C950.459 109.2 952.322 108.733 953.919 107.8C955.517 106.733 956.715 105.333 957.513 103.6C958.445 101.733 958.911 99.5333 958.911 97V41.8H933.156V5H1022V41.8H1000.44V102.4C1000.44 109.6 999.24 115.933 996.844 121.4C994.448 126.867 991.187 131.533 987.061 135.4C982.935 139.267 978.077 142.2 972.487 144.2C967.03 146.067 961.107 147 954.718 147Z" fill="#26A699"/>
</svg>
