<svg width="1111" height="187" viewBox="0 0 1111 187" fill="none" xmlns="http://www.w3.org/2000/svg">
<path d="M865.974 149C854.814 149 845.214 146.84 837.174 142.52C829.134 138.2 822.954 132.32 818.634 124.88C814.314 117.32 812.154 108.68 812.154 98.96C812.154 91.76 813.354 85.1 815.754 78.98C818.154 72.86 821.514 67.58 825.834 63.14C830.274 58.58 835.434 55.1 841.314 52.7C847.314 50.18 853.854 48.92 860.934 48.92C868.014 48.92 874.434 50.18 880.194 52.7C886.074 55.1 891.114 58.58 895.314 63.14C899.514 67.58 902.694 72.86 904.854 78.98C907.134 85.1 908.154 91.76 907.914 98.96L907.734 106.52H832.314L828.174 89.42H878.754L875.334 93.02V89.78C875.334 87.5 874.734 85.52 873.534 83.84C872.454 82.04 870.894 80.66 868.854 79.7C866.814 78.74 864.414 78.26 861.654 78.26C858.174 78.26 855.234 78.98 852.834 80.42C850.434 81.86 848.574 83.9 847.254 86.54C846.054 89.18 845.454 92.36 845.454 96.08C845.454 100.4 846.354 104.18 848.154 107.42C850.074 110.66 852.834 113.18 856.434 114.98C860.154 116.78 864.714 117.68 870.114 117.68C873.714 117.68 876.774 117.26 879.294 116.42C881.934 115.46 884.694 113.96 887.574 111.92L904.314 135.5C899.874 138.98 895.494 141.68 891.174 143.6C886.974 145.52 882.774 146.9 878.574 147.74C874.494 148.58 870.294 149 865.974 149Z" fill="#001915"/>
<path d="M710.854 149.2V16H746.494V72.34L738.754 74.5C740.074 69.94 742.414 65.92 745.774 62.44C749.254 58.84 753.394 56.02 758.194 53.98C762.994 51.94 768.094 50.92 773.494 50.92C780.694 50.92 786.814 52.42 791.854 55.42C796.894 58.42 800.674 62.86 803.194 68.74C805.834 74.5 807.154 81.52 807.154 89.8V149.2H770.614V92.86C770.614 90.22 770.194 88 769.354 86.2C768.514 84.4 767.254 83.02 765.574 82.06C763.894 81.1 761.914 80.62 759.634 80.62C757.834 80.62 756.154 80.92 754.594 81.52C753.154 82 751.894 82.78 750.814 83.86C749.734 84.94 748.894 86.14 748.294 87.46C747.694 88.78 747.394 90.28 747.394 91.96V149.2H729.214C724.654 149.2 720.814 149.2 717.694 149.2C714.694 149.2 712.414 149.2 710.854 149.2Z" fill="#001915"/>
<path d="M664.094 149C654.374 149 645.674 146.84 637.994 142.52C630.434 138.2 624.434 132.32 619.994 124.88C615.674 117.32 613.514 108.68 613.514 98.96C613.514 89.24 615.674 80.66 619.994 73.22C624.434 65.66 630.434 59.72 637.994 55.4C645.674 51.08 654.374 48.92 664.094 48.92C672.734 48.92 680.714 50.24 688.034 52.88C695.354 55.52 701.294 59.36 705.854 64.4L686.054 87.8C684.734 86.36 683.174 85.04 681.374 83.84C679.574 82.64 677.534 81.74 675.254 81.14C672.974 80.42 670.334 80.06 667.334 80.06C663.734 80.06 660.554 80.84 657.794 82.4C655.154 83.96 653.114 86.18 651.674 89.06C650.234 91.82 649.514 95.06 649.514 98.78C649.514 102.38 650.174 105.62 651.494 108.5C652.934 111.26 654.974 113.48 657.614 115.16C660.374 116.84 663.614 117.68 667.334 117.68C670.334 117.68 672.974 117.38 675.254 116.78C677.534 116.18 679.574 115.34 681.374 114.26C683.174 113.06 684.734 111.68 686.054 110.12L705.674 133.7C701.234 138.62 695.354 142.4 688.034 145.04C680.714 147.68 672.734 149 664.094 149Z" fill="#001915"/>
<path d="M545.874 150.82C537.834 150.82 530.694 148.72 524.454 144.52C518.214 140.2 513.294 134.32 509.694 126.88C506.094 119.32 504.294 110.68 504.294 100.96C504.294 91.12 506.034 82.48 509.514 75.04C513.114 67.48 518.034 61.6 524.274 57.4C530.634 53.08 537.954 50.92 546.234 50.92C550.554 50.92 554.514 51.52 558.114 52.72C561.714 53.92 564.894 55.6 567.654 57.76C570.414 59.92 572.814 62.44 574.854 65.32C576.894 68.08 578.634 71.08 580.074 74.32L572.694 74.14V52.9H608.514V149.2H571.794V125.62L579.894 126.34C578.694 129.82 577.014 133.06 574.854 136.06C572.814 139.06 570.354 141.64 567.474 143.8C564.594 145.96 561.354 147.7 557.754 149.02C554.154 150.22 550.194 150.82 545.874 150.82ZM556.314 121.12C559.794 121.12 562.734 120.34 565.134 118.78C567.654 117.22 569.514 114.94 570.714 111.94C572.034 108.94 572.694 105.28 572.694 100.96C572.694 96.64 572.034 92.98 570.714 89.98C569.514 86.86 567.654 84.52 565.134 82.96C562.734 81.4 559.794 80.62 556.314 80.62C552.834 80.62 549.894 81.4 547.494 82.96C545.094 84.52 543.234 86.86 541.914 89.98C540.714 92.98 540.114 96.64 540.114 100.96C540.114 105.28 540.714 108.94 541.914 111.94C543.234 114.94 545.094 117.22 547.494 118.78C549.894 120.34 552.834 121.12 556.314 121.12Z" fill="#001915"/>
<path d="M395.074 186.8V50.9H428.914L430.894 72.14L423.514 70.52C424.354 66.32 426.394 62.6 429.634 59.36C432.874 56.12 436.954 53.6 441.874 51.8C446.914 49.88 452.374 48.92 458.254 48.92C466.174 48.92 473.194 51.08 479.314 55.4C485.554 59.6 490.414 65.48 493.894 73.04C497.494 80.48 499.294 89.12 499.294 98.96C499.294 108.68 497.494 117.32 493.894 124.88C490.294 132.32 485.314 138.2 478.954 142.52C472.714 146.72 465.514 148.82 457.354 148.82C451.954 148.82 446.854 147.86 442.054 145.94C437.374 144.02 433.414 141.38 430.174 138.02C426.934 134.54 424.774 130.58 423.694 126.14L431.794 123.62V186.8H395.074ZM447.274 119.12C450.754 119.12 453.694 118.34 456.094 116.78C458.494 115.22 460.294 112.94 461.494 109.94C462.814 106.94 463.474 103.28 463.474 98.96C463.474 94.64 462.814 90.98 461.494 87.98C460.294 84.86 458.494 82.52 456.094 80.96C453.694 79.4 450.754 78.62 447.274 78.62C443.794 78.62 440.794 79.4 438.274 80.96C435.874 82.52 434.014 84.86 432.694 87.98C431.494 90.98 430.894 94.64 430.894 98.96C430.894 103.28 431.494 106.94 432.694 109.94C434.014 112.94 435.874 115.22 438.274 116.78C440.794 118.34 443.794 119.12 447.274 119.12Z" fill="#001915"/>
<path d="M346.154 149C335.714 149 326.594 147.44 318.794 144.32C311.114 141.08 305.114 137.06 300.794 132.26L322.034 114.08C325.874 117.44 330.254 119.96 335.174 121.64C340.214 123.2 344.414 123.98 347.774 123.98C348.974 123.98 349.994 123.92 350.834 123.8C351.794 123.56 352.514 123.26 352.994 122.9C353.594 122.42 354.014 121.94 354.254 121.46C354.614 120.98 354.794 120.38 354.794 119.66C354.794 117.86 353.834 116.54 351.914 115.7C350.834 115.22 349.034 114.62 346.514 113.9C344.114 113.18 340.934 112.34 336.974 111.38C332.294 110.18 327.974 108.68 324.014 106.88C320.174 105.08 316.874 102.98 314.114 100.58C311.234 97.94 308.954 94.94 307.274 91.58C305.714 88.22 304.934 84.44 304.934 80.24C304.934 75.32 306.074 70.94 308.354 67.1C310.634 63.26 313.754 60.02 317.714 57.38C321.674 54.62 326.114 52.52 331.034 51.08C335.954 49.64 340.994 48.92 346.154 48.92C352.034 48.92 357.494 49.52 362.534 50.72C367.694 51.8 372.494 53.42 376.934 55.58C381.494 57.62 385.634 60.08 389.354 62.96L370.814 83.66C368.774 81.98 366.374 80.36 363.614 78.8C360.974 77.24 358.154 75.98 355.154 75.02C352.274 73.94 349.574 73.4 347.054 73.4C345.734 73.4 344.594 73.52 343.634 73.76C342.794 73.88 342.074 74.18 341.474 74.66C340.874 75.02 340.394 75.5 340.034 76.1C339.794 76.58 339.674 77.18 339.674 77.9C339.674 78.86 339.974 79.76 340.574 80.6C341.174 81.44 342.134 82.16 343.454 82.76C344.534 83.24 346.334 83.9 348.854 84.74C351.494 85.58 355.334 86.72 360.374 88.16C365.774 89.72 370.514 91.52 374.594 93.56C378.794 95.6 382.154 98 384.674 100.76C386.354 102.68 387.674 104.84 388.634 107.24C389.594 109.64 390.074 112.22 390.074 114.98C390.074 121.58 388.154 127.46 384.314 132.62C380.594 137.66 375.434 141.68 368.834 144.68C362.234 147.56 354.674 149 346.154 149Z" fill="#001915"/>
<path d="M253.82 149C242.66 149 233.06 146.84 225.02 142.52C216.98 138.2 210.8 132.32 206.48 124.88C202.16 117.32 200 108.68 200 98.96C200 91.76 201.2 85.1 203.6 78.98C206 72.86 209.36 67.58 213.68 63.14C218.12 58.58 223.28 55.1 229.16 52.7C235.16 50.18 241.7 48.92 248.78 48.92C255.86 48.92 262.28 50.18 268.04 52.7C273.92 55.1 278.96 58.58 283.16 63.14C287.36 67.58 290.54 72.86 292.7 78.98C294.98 85.1 296 91.76 295.76 98.96L295.58 106.52H220.16L216.02 89.42H266.6L263.18 93.02V89.78C263.18 87.5 262.58 85.52 261.38 83.84C260.3 82.04 258.74 80.66 256.7 79.7C254.66 78.74 252.26 78.26 249.5 78.26C246.02 78.26 243.08 78.98 240.68 80.42C238.28 81.86 236.42 83.9 235.1 86.54C233.9 89.18 233.3 92.36 233.3 96.08C233.3 100.4 234.2 104.18 236 107.42C237.92 110.66 240.68 113.18 244.28 114.98C248 116.78 252.56 117.68 257.96 117.68C261.56 117.68 264.62 117.26 267.14 116.42C269.78 115.46 272.54 113.96 275.42 111.92L292.16 135.5C287.72 138.98 283.34 141.68 279.02 143.6C274.82 145.52 270.62 146.9 266.42 147.74C262.34 148.58 258.14 149 253.82 149Z" fill="#001915"/>
<path d="M0 91C0 87.6863 2.68629 85 6 85H31C34.3137 85 37 87.6863 37 91C37 94.3137 34.3137 97 31 97H6C2.68629 97 0 94.3137 0 91Z" fill="#001915"/>
<path fill-rule="evenodd" clip-rule="evenodd" d="M124.48 149H70H27C23.6863 149 21 146.314 21 143C21 139.686 23.6863 137 27 137H59C66.2268 136.183 70 132 70 132V127C70 127 64.8547 123.654 55 123H8C4.68629 123 2 120.314 2 117C2 113.686 4.68629 111 8 111H56C64.7288 108.48 69.1848 107.038 70 104C68.188 100.143 66.3724 98.6656 62 97H47C43.6863 97 41 94.3137 41 91C41 87.6863 43.6863 85 47 85H63C67.5989 84.3464 70 81 70 81V74C70 74 68.2849 71.4902 65 71H24C20.6863 71 18 68.3137 18 65C18 61.6863 20.6863 59 24 59H65C68.2849 58.5098 70 56 70 56V48C70 48 63.1396 45.4902 50 45H8C4.68629 45 2 42.3137 2 39C2 35.6863 4.68629 33 8 33H50C63.1396 32.5098 70 30 70 30V22C70 22 66.2268 19.4902 59 19H37C33.6863 19 31 16.3137 31 13C31 9.68629 33.6863 7 37 7H87H123.927C138.492 7 151.075 9.84277 161.676 15.5283C172.323 21.1676 180.527 29.3031 186.289 39.9346C192.096 50.5199 195 63.2083 195 78C195 92.7917 192.119 105.503 186.358 116.135C180.596 126.72 172.438 134.855 161.883 140.541C151.328 146.18 138.861 149 124.48 149ZM123.097 116.273H108.5V39.7266H121.991C129.366 39.7266 135.588 40.859 140.658 43.124C145.774 45.389 149.646 49.2949 152.273 54.8418C154.947 60.3887 156.283 68.1081 156.283 78C156.283 87.8919 154.97 95.6113 152.342 101.158C149.761 106.705 145.982 110.611 141.004 112.876C136.072 115.141 130.103 116.273 123.097 116.273Z" fill="#001915"/>
<g clip-path="url(#clip0_55_6)">
<path d="M130.104 138.354L214.354 54.1043L188.357 28.1071L126.253 90.2114L90.1457 54.1043L68 76.25L130.104 138.354Z" fill="#008A7C"/>
</g>
<path d="M1047.58 149.04C1039.54 149.04 1032.4 146.94 1026.16 142.74C1019.92 138.42 1015 132.54 1011.4 125.1C1007.8 117.54 1006 108.9 1006 99.18C1006 89.34 1007.74 80.7 1011.22 73.26C1014.82 65.7 1019.74 59.82 1025.98 55.62C1032.34 51.3 1039.66 49.14 1047.94 49.14C1052.26 49.14 1056.22 49.74 1059.82 50.94C1063.42 52.14 1066.6 53.82 1069.36 55.98C1072.12 58.14 1074.52 60.66 1076.56 63.54C1078.6 66.3 1080.34 69.3 1081.78 72.54L1074.4 72.36V51.12H1110.22V147.42H1073.5V123.84L1081.6 124.56C1080.4 128.04 1078.72 131.28 1076.56 134.28C1074.52 137.28 1072.06 139.86 1069.18 142.02C1066.3 144.18 1063.06 145.92 1059.46 147.24C1055.86 148.44 1051.9 149.04 1047.58 149.04ZM1058.02 119.34C1061.5 119.34 1064.44 118.56 1066.84 117C1069.36 115.44 1071.22 113.16 1072.42 110.16C1073.74 107.16 1074.4 103.5 1074.4 99.18C1074.4 94.86 1073.74 91.2 1072.42 88.2C1071.22 85.08 1069.36 82.74 1066.84 81.18C1064.44 79.62 1061.5 78.84 1058.02 78.84C1054.54 78.84 1051.6 79.62 1049.2 81.18C1046.8 82.74 1044.94 85.08 1043.62 88.2C1042.42 91.2 1041.82 94.86 1041.82 99.18C1041.82 103.5 1042.42 107.16 1043.62 110.16C1044.94 113.16 1046.8 115.44 1049.2 117C1051.6 118.56 1054.54 119.34 1058.02 119.34ZM1046.5 43.74L1036.06 27.72L1073.14 0L1087.54 21.78L1046.5 43.74Z" fill="#008A7C"/>
<path d="M954.718 149C949.128 149 943.937 148.4 939.145 147.2C934.354 146.133 930.028 144.6 926.168 142.6C922.308 140.467 918.848 137.867 915.786 134.8C912.858 131.6 910.263 128 908 124L931.758 99.4C932.956 101.133 934.154 102.733 935.352 104.2C936.683 105.667 938.014 106.933 939.345 108C940.676 108.933 942.074 109.733 943.538 110.4C945.135 110.933 946.732 111.2 948.329 111.2C950.459 111.2 952.322 110.733 953.919 109.8C955.517 108.733 956.715 107.333 957.513 105.6C958.445 103.733 958.911 101.533 958.911 99V43.8H933.156V7H1022V43.8H1000.44V104.4C1000.44 111.6 999.24 117.933 996.844 123.4C994.448 128.867 991.187 133.533 987.061 137.4C982.935 141.267 978.077 144.2 972.487 146.2C967.03 148.067 961.107 149 954.718 149Z" fill="#008A7C"/>
<defs>
<clipPath id="clip0_55_6">
<rect width="106" height="131" fill="white" transform="translate(108 7)"/>
</clipPath>
</defs>
</svg>
